<svg xmlns="http://www.w3.org/2000/svg" width="41.139" height="41.138" viewBox="0 0 41.139 41.138">
  <g id="Group_106" data-name="Group 106" transform="translate(-1011.033 -5360.406)">
    <g id="Group_100" data-name="Group 100">
      <path id="Path_287" data-name="Path 287" d="M1031.6,5401.544a20.569,20.569,0,1,1,20.57-20.569A20.592,20.592,0,0,1,1031.6,5401.544Zm0-39.543a18.974,18.974,0,1,0,18.975,18.974A19,19,0,0,0,1031.6,5362Z" fill="#fff"/>
    </g>
    <g id="Group_101" data-name="Group 101">
      <path id="Path_288" data-name="Path 288" d="M1031.6,5401.544c-7.013,0-12.72-9.227-12.72-20.569s5.707-20.569,12.72-20.569,12.72,9.227,12.72,20.569S1038.616,5401.544,1031.6,5401.544Zm0-39.543c-6.134,0-11.125,8.511-11.125,18.974s4.991,18.974,11.125,18.974,11.126-8.511,11.126-18.974S1037.737,5362,1031.6,5362Z" fill="#fff"/>
    </g>
    <g id="Group_102" data-name="Group 102">
      <rect id="Rectangle_47" data-name="Rectangle 47" width="1.595" height="39.544" transform="translate(1030.805 5361.203)" fill="#fff"/>
    </g>
    <g id="Group_103" data-name="Group 103">
      <rect id="Rectangle_48" data-name="Rectangle 48" width="39.544" height="1.595" transform="translate(1011.83 5380.177)" fill="#fff"/>
    </g>
    <g id="Group_104" data-name="Group 104">
      <path id="Path_289" data-name="Path 289" d="M1031.761,5373.1a26.8,26.8,0,0,1-15.236-4.488l.916-1.3c8.016,5.624,20.713,5.63,28.306.011l.949,1.282A25.337,25.337,0,0,1,1031.761,5373.1Z" fill="#fff"/>
    </g>
    <g id="Group_105" data-name="Group 105">
      <path id="Path_290" data-name="Path 290" d="M1045.764,5394.828c-8.015-5.623-20.713-5.629-28.307-.011l-.949-1.282c8.1-6,21.638-6,30.172-.012Z" fill="#fff"/>
    </g>
  </g>
</svg>
