<svg xmlns="http://www.w3.org/2000/svg" width="59.811" height="37.371" viewBox="0 0 59.811 37.371">
  <g id="Group_69" data-name="Group 69" transform="translate(-532.285 -5551.426)">
    <g id="Group_63" data-name="Group 63">
      <path id="Path_267" data-name="Path 267" d="M562.19,5567.436a8.005,8.005,0,1,1,8.005-8A8.014,8.014,0,0,1,562.19,5567.436Zm0-14.434a6.429,6.429,0,1,0,6.429,6.429A6.436,6.436,0,0,0,562.19,5553Z" fill="#fff"/>
    </g>
    <g id="Group_64" data-name="Group 64">
      <path id="Path_268" data-name="Path 268" d="M581.145,5567.679a6.535,6.535,0,1,1,6.536-6.535A6.543,6.543,0,0,1,581.145,5567.679Zm0-11.494a4.959,4.959,0,1,0,4.959,4.959A4.965,4.965,0,0,0,581.145,5556.185Z" fill="#fff"/>
    </g>
    <g id="Group_65" data-name="Group 65">
      <path id="Path_269" data-name="Path 269" d="M572.935,5588.8H551.446a2.807,2.807,0,0,1-2.8-2.8v-4.241a13.776,13.776,0,0,1,13.169-13.809,13.55,13.55,0,0,1,13.929,13.543v4.507A2.807,2.807,0,0,1,572.935,5588.8Zm-11.082-19.279a12.19,12.19,0,0,0-11.636,12.234v4.241a1.23,1.23,0,0,0,1.229,1.228h21.489a1.23,1.23,0,0,0,1.228-1.228v-4.507a11.973,11.973,0,0,0-12.31-11.968Z" fill="#fff"/>
    </g>
    <g id="Group_66" data-name="Group 66">
      <path id="Path_270" data-name="Path 270" d="M589.11,5584.647H577.188v-4.432a11.9,11.9,0,0,0-3.458-8.412l-.567-.574.587-.553a10.767,10.767,0,0,1,7-2.955h0a10.951,10.951,0,0,1,11.349,10.943v3A2.99,2.99,0,0,1,589.11,5584.647Zm-10.345-1.577H589.11a1.41,1.41,0,0,0,1.409-1.409v-3a9.374,9.374,0,0,0-9.717-9.368h0a9.147,9.147,0,0,0-5.379,2.014,13.453,13.453,0,0,1,3.342,8.9Z" fill="#fff"/>
    </g>
    <g id="Group_67" data-name="Group 67">
      <path id="Path_271" data-name="Path 271" d="M543.236,5567.679a6.535,6.535,0,1,1,6.534-6.535A6.543,6.543,0,0,1,543.236,5567.679Zm0-11.494a4.959,4.959,0,1,0,4.958,4.959A4.965,4.965,0,0,0,543.236,5556.185Z" fill="#fff"/>
    </g>
    <g id="Group_68" data-name="Group 68">
      <path id="Path_272" data-name="Path 272" d="M547.192,5584.647H535.271a2.99,2.99,0,0,1-2.986-2.986v-3a10.881,10.881,0,0,1,18.346-7.988l.586.553-.566.574a11.9,11.9,0,0,0-3.459,8.412Zm-3.96-15.357a9.373,9.373,0,0,0-9.37,9.374v3a1.41,1.41,0,0,0,1.409,1.409h10.345v-2.855a13.457,13.457,0,0,1,3.342-8.906,9.153,9.153,0,0,0-5.38-2.013h0C543.463,5569.292,543.347,5569.29,543.232,5569.29Z" fill="#fff"/>
    </g>
  </g>
</svg>
