<svg xmlns="http://www.w3.org/2000/svg" width="42.929" height="45.709" viewBox="0 0 42.929 45.709">
  <g id="Group_99" data-name="Group 99" transform="translate(-1010.138 -5541.381)">
    <g id="Group_89" data-name="Group 89">
      <g id="Group_88" data-name="Group 88">
        <path id="Path_282" data-name="Path 282" d="M1011.071,5563.769a.934.934,0,0,1-.933-.934,21.465,21.465,0,0,1,36.642-15.178.933.933,0,0,1-1.32,1.32,19.6,19.6,0,0,0-33.455,13.858A.934.934,0,0,1,1011.071,5563.769Z" fill="#fff"/>
      </g>
    </g>
    <g id="Group_92" data-name="Group 92">
      <g id="Group_90" data-name="Group 90">
        <path id="Path_283" data-name="Path 283" d="M1033.113,5580.252h-3.022a1.834,1.834,0,0,1-1.831-1.832v-2.661a11.9,11.9,0,0,1-2.441-1.013l-1.883,1.883a1.834,1.834,0,0,1-2.591,0l-2.137-2.137a1.834,1.834,0,0,1,0-2.591l1.883-1.883a11.931,11.931,0,0,1-1.012-2.439h-2.661a1.835,1.835,0,0,1-1.832-1.833v-3.021a1.834,1.834,0,0,1,1.832-1.832h2.661a11.959,11.959,0,0,1,1.012-2.441l-1.883-1.883a1.835,1.835,0,0,1,0-2.591l2.137-2.136a1.833,1.833,0,0,1,2.591,0l1.883,1.883a11.927,11.927,0,0,1,2.441-1.013v-2.661a1.834,1.834,0,0,1,1.831-1.832h3.022a1.835,1.835,0,0,1,1.833,1.832v2.661a11.913,11.913,0,0,1,2.439,1.013l1.884-1.883a1.875,1.875,0,0,1,2.59,0l2.137,2.136a1.835,1.835,0,0,1,0,2.591l-1.883,1.883a11.926,11.926,0,0,1,1.013,2.441h2.661a1.834,1.834,0,0,1,1.832,1.832v3.021a1.835,1.835,0,0,1-1.832,1.833h-2.661a11.952,11.952,0,0,1-1.013,2.44L1044,5571.9a1.832,1.832,0,0,1,0,2.591l-2.137,2.136a1.876,1.876,0,0,1-2.591,0l-1.882-1.883a11.9,11.9,0,0,1-2.44,1.013v2.661A1.835,1.835,0,0,1,1033.113,5580.252Zm-7.526-7.4.506.313a10.447,10.447,0,0,0,3.09,1.283l.578.136v3.834a.33.33,0,0,0,.33.33h3.022a.33.33,0,0,0,.331-.33v-3.834l.578-.136a10.451,10.451,0,0,0,3.09-1.283l.506-.313,2.713,2.713a.325.325,0,0,0,.233.1.328.328,0,0,0,.234-.1l2.136-2.136a.328.328,0,0,0,.1-.234.324.324,0,0,0-.1-.233l-2.713-2.713.313-.506a10.357,10.357,0,0,0,1.281-3.09l.137-.578h3.835a.331.331,0,0,0,.33-.331v-3.021a.331.331,0,0,0-.33-.331h-3.835l-.137-.578a10.37,10.37,0,0,0-1.281-3.09l-.313-.506,2.713-2.712a.331.331,0,0,0,0-.468l-2.136-2.137a.33.33,0,0,0-.234-.1.326.326,0,0,0-.233.1l-2.713,2.713-.506-.312a10.419,10.419,0,0,0-3.09-1.282l-.578-.137v-3.834a.33.33,0,0,0-.331-.33h-3.022a.33.33,0,0,0-.33.33v3.834l-.578.137a10.409,10.409,0,0,0-3.091,1.282l-.505.312-2.712-2.713a.332.332,0,0,0-.468,0l-2.137,2.137a.331.331,0,0,0,0,.468l2.713,2.712-.312.506a10.383,10.383,0,0,0-1.282,3.09l-.137.578h-3.834a.331.331,0,0,0-.33.331v3.021a.331.331,0,0,0,.33.331h3.834l.137.578a10.37,10.37,0,0,0,1.282,3.09l.312.5-2.713,2.714a.329.329,0,0,0,0,.466l2.137,2.137a.332.332,0,0,0,.468,0Zm6.016-.956a7.662,7.662,0,1,1,7.662-7.662A7.671,7.671,0,0,1,1031.6,5571.9Zm0-13.824a6.161,6.161,0,1,0,6.16,6.162A6.167,6.167,0,0,0,1031.6,5558.074Z" fill="#fff"/>
      </g>
      <g id="Group_91" data-name="Group 91">
        <circle id="Ellipse_24" data-name="Ellipse 24" cx="4.15" cy="4.15" r="4.15" transform="translate(1027.226 5568.146) rotate(-86.787)" fill="#fff"/>
      </g>
    </g>
    <g id="Group_94" data-name="Group 94">
      <g id="Group_93" data-name="Group 93">
        <path id="Path_284" data-name="Path 284" d="M1044.96,5550.96l3.5.684a.819.819,0,0,0,.96-.961l-.684-3.5a.818.818,0,0,0-1.382-.422l-2.819,2.819A.818.818,0,0,0,1044.96,5550.96Z" fill="#fff"/>
      </g>
    </g>
    <g id="Group_96" data-name="Group 96">
      <g id="Group_95" data-name="Group 95">
        <path id="Path_285" data-name="Path 285" d="M1031.6,5587.09a21.393,21.393,0,0,1-15.177-6.276.933.933,0,0,1,1.32-1.32,19.6,19.6,0,0,0,33.455-13.858.934.934,0,0,1,1.867,0,21.446,21.446,0,0,1-21.465,21.454Z" fill="#fff"/>
      </g>
    </g>
    <g id="Group_98" data-name="Group 98">
      <g id="Group_97" data-name="Group 97">
        <path id="Path_286" data-name="Path 286" d="M1018.245,5577.511l-3.5-.684a.819.819,0,0,0-.961.961l.684,3.5a.819.819,0,0,0,1.383.422l2.819-2.819A.819.819,0,0,0,1018.245,5577.511Z" fill="#fff"/>
      </g>
    </g>
  </g>
</svg>
