<svg xmlns="http://www.w3.org/2000/svg" width="257.576" height="81.158" viewBox="0 0 257.576 81.158">
  <g id="Group_46" data-name="Group 46" transform="translate(-668.108 -7018.192)">
    <g id="Group_43" data-name="Group 43">
      <circle id="Ellipse_14" data-name="Ellipse 14" cx="1.874" cy="1.874" r="1.874" transform="translate(762.296 7039.618)" fill="#fff"/>
      <circle id="Ellipse_15" data-name="Ellipse 15" cx="1.2" cy="1.2" r="1.2" transform="translate(754.327 7048.113)" fill="#fff"/>
      <circle id="Ellipse_16" data-name="Ellipse 16" cx="2.398" cy="2.398" r="2.398" transform="translate(763.122 7053.975)" fill="#fff"/>
    </g>
    <circle id="Ellipse_17" data-name="Ellipse 17" cx="18.327" cy="18.327" r="18.327" transform="translate(781.412 7040.444)" fill="#fff"/>
    <path id="Path_93" data-name="Path 93" d="M771.331,7097.6a38.825,38.825,0,1,1,14.983-74.65,40.579,40.579,0,1,0,0,71.65A38.717,38.717,0,0,1,771.331,7097.6Z" fill="#fff"/>
    <g id="Group_44" data-name="Group 44">
      <path id="Path_94" data-name="Path 94" d="M839.087,7041.157l15.64,36.444q-.585-.051-1.309-.127a13.379,13.379,0,0,0-1.412-.076q-.789,0-1.564.076t-1.258.127q-2.444-7.35-5.418-14.166H830.541q-2.187,5.367-3.331,8.52t-1.882,5.646a8.8,8.8,0,0,0-1.03-.178c-.212-.017-.488-.025-.827-.025a7.221,7.221,0,0,0-1.055.076c-.348.05-.623.093-.826.127l16.251-36.444Zm3.866,20.091-5.748-13.326-5.723,13.326Z" fill="#fff"/>
      <path id="Path_95" data-name="Path 95" d="M886.925,7071.879l-.2,3.332a17.877,17.877,0,0,1-5.353,2.288,25.427,25.427,0,0,1-6.218.738q-8.546,0-13.441-5.061t-4.9-13.708q0-8.52,5.672-13.53,5.417-4.782,14.013-4.781a26.534,26.534,0,0,1,11.139,2.39,18.916,18.916,0,0,0-.585,1.818,20.869,20.869,0,0,0-.458,2.124l-.407.127a11.627,11.627,0,0,0-4.577-3.28,12.7,12.7,0,0,0-5.315-1.221,12.986,12.986,0,0,0-10.784,4.959q-3.586,4.526-3.586,11.623,0,7.5,3.853,11.978a12.693,12.693,0,0,0,10.11,4.477,16.432,16.432,0,0,0,5.823-1.145A16.182,16.182,0,0,0,886.925,7071.879Z" fill="#fff"/>
      <path id="Path_96" data-name="Path 96" d="M921.081,7056.874v-15c.356.068.707.118,1.055.152s.767.051,1.259.051a7.965,7.965,0,0,0,1.411-.1,5.084,5.084,0,0,1,.878-.1V7077.6q-.636-.1-1.157-.152t-1.132-.051a10.916,10.916,0,0,0-1.285.076c-.431.05-.775.093-1.029.127V7059.6q-1.908,0-6.282-.114t-4.654-.115q-1.857,0-6.231.115t-4.807.114V7077.6q-.61-.1-1.132-.152t-1.157-.051c-.373,0-.683.008-.928.025s-.7.076-1.361.178v-35.732c.628.068,1.052.118,1.272.152a7.3,7.3,0,0,0,1.017.051,8.175,8.175,0,0,0,1.438-.1,5,5,0,0,1,.851-.1v15q1.934,0,6.383.1t4.655.1q1.881,0,6.231-.1T921.081,7056.874Z" fill="#fff"/>
    </g>
    <g id="Group_45" data-name="Group 45">
      <path id="Path_97" data-name="Path 97" d="M668.108,7077.563V7041.83a10.341,10.341,0,0,0,1.03.153q.522.051,1.259.051a8.155,8.155,0,0,0,1.437-.1,4.949,4.949,0,0,1,.852-.1v35.733q-.61-.1-1.132-.153t-1.157-.051a11.024,11.024,0,0,0-1.272.077C668.684,7077.486,668.345,7077.529,668.108,7077.563Z" fill="#fff"/>
      <path id="Path_98" data-name="Path 98" d="M713.505,7041.83v35.733h-1.577a18.814,18.814,0,0,0-2.7-3.23l-22.507-24.9h-.509v28.128c-.424-.068-.72-.119-.89-.153a2.982,2.982,0,0,0-.585-.051,4.343,4.343,0,0,0-.776.077c-.28.05-.5.093-.673.127V7041.83h2.085l24.7,26.882h.508V7041.83q.636.1.891.153a2.83,2.83,0,0,0,.559.051,4.5,4.5,0,0,0,.8-.077Q713.251,7041.88,713.505,7041.83Z" fill="#fff"/>
    </g>
  </g>
</svg>
